<mxfile host="app.diagrams.net" modified="2020-12-20T16:46:22.743Z" agent="5.0 (Windows NT 10.0; Win64; x64) AppleWebKit/537.36 (KHTML, like Gecko) Chrome/87.0.4280.88 Safari/537.36" etag="2QDcgAUwypJI8-_gML_R" version="14.1.1" type="github">
  <diagram id="Xaw3y7m2BAXYYJtlHXCn" name="Page-1">
    <mxGraphModel dx="1951" dy="346" grid="1" gridSize="10" guides="1" tooltips="1" connect="1" arrows="1" fold="1" page="1" pageScale="1" pageWidth="1169" pageHeight="827" math="0" shadow="0">
      <root>
        <mxCell id="0" />
        <mxCell id="1" parent="0" />
        <mxCell id="1ENP_768lPTiWEfWRTLd-1" value="Virtual Entity:&lt;br style=&quot;font-size: 11px&quot;&gt;River" style="rounded=0;whiteSpace=wrap;html=1;fontStyle=2;fillColor=#d5e8d4;strokeColor=#82b366;fontSize=11;" parent="1" vertex="1">
          <mxGeometry x="-330" y="20" width="140" height="40" as="geometry" />
        </mxCell>
        <mxCell id="1ENP_768lPTiWEfWRTLd-2" value="&lt;span style=&quot;font-style: normal&quot;&gt;EntityType: River&lt;br&gt;&lt;br&gt;&lt;/span&gt;" style="rounded=0;whiteSpace=wrap;html=1;fontStyle=2;fillColor=#d5e8d4;strokeColor=#82b366;fontSize=11;" parent="1" vertex="1">
          <mxGeometry x="-330" y="60" width="140" height="40" as="geometry" />
        </mxCell>
        <mxCell id="1ENP_768lPTiWEfWRTLd-24" style="edgeStyle=orthogonalEdgeStyle;rounded=0;orthogonalLoop=1;jettySize=auto;html=1;exitX=0;exitY=1;exitDx=0;exitDy=0;entryX=1;entryY=1;entryDx=0;entryDy=0;endArrow=open;endFill=0;" parent="1" source="1ENP_768lPTiWEfWRTLd-3" target="1ENP_768lPTiWEfWRTLd-1" edge="1">
          <mxGeometry relative="1" as="geometry">
            <Array as="points">
              <mxPoint x="-20" y="60" />
              <mxPoint x="-20" y="60" />
            </Array>
          </mxGeometry>
        </mxCell>
        <mxCell id="1ENP_768lPTiWEfWRTLd-3" value="Virtual Entity:&lt;br style=&quot;font-size: 11px&quot;&gt;Alarm" style="rounded=0;whiteSpace=wrap;html=1;fontStyle=2;fillColor=#d5e8d4;strokeColor=#82b366;fontSize=11;" parent="1" vertex="1">
          <mxGeometry x="430" y="20" width="140" height="40" as="geometry" />
        </mxCell>
        <mxCell id="1ENP_768lPTiWEfWRTLd-4" value="&lt;span style=&quot;font-style: normal&quot;&gt;Entity Type: Alarm&lt;br&gt;&lt;/span&gt;" style="rounded=0;whiteSpace=wrap;html=1;fontStyle=2;fillColor=#d5e8d4;strokeColor=#82b366;fontSize=11;" parent="1" vertex="1">
          <mxGeometry x="430" y="60" width="140" height="40" as="geometry" />
        </mxCell>
        <mxCell id="1ENP_768lPTiWEfWRTLd-5" value="Attribute: Water Flow" style="rounded=0;whiteSpace=wrap;html=1;fontStyle=2;fillColor=#fff2cc;strokeColor=#d6b656;fontSize=11;" parent="1" vertex="1">
          <mxGeometry x="-60" y="140" width="140" height="40" as="geometry" />
        </mxCell>
        <mxCell id="1ENP_768lPTiWEfWRTLd-6" value="&lt;span style=&quot;font-style: normal&quot;&gt;AttributeName: flowValue&lt;br&gt;AttributeType : State&lt;/span&gt;" style="rounded=0;whiteSpace=wrap;html=1;fontStyle=2;fillColor=#fff2cc;strokeColor=#d6b656;fontSize=11;" parent="1" vertex="1">
          <mxGeometry x="-60" y="180" width="140" height="40" as="geometry" />
        </mxCell>
        <mxCell id="1ENP_768lPTiWEfWRTLd-25" style="edgeStyle=orthogonalEdgeStyle;rounded=0;orthogonalLoop=1;jettySize=auto;html=1;exitX=0.5;exitY=0;exitDx=0;exitDy=0;entryX=0.5;entryY=1;entryDx=0;entryDy=0;endArrow=diamond;endFill=1;" parent="1" source="1ENP_768lPTiWEfWRTLd-7" edge="1">
          <mxGeometry relative="1" as="geometry">
            <mxPoint x="-300" y="100" as="targetPoint" />
            <Array as="points">
              <mxPoint x="-580" y="140" />
              <mxPoint x="-580" y="120" />
              <mxPoint x="-300" y="120" />
            </Array>
          </mxGeometry>
        </mxCell>
        <mxCell id="1ENP_768lPTiWEfWRTLd-7" value="Attribute: Temperature" style="rounded=0;whiteSpace=wrap;html=1;fontStyle=2;fillColor=#fff2cc;strokeColor=#d6b656;fontSize=11;" parent="1" vertex="1">
          <mxGeometry x="-654" y="140" width="140" height="40" as="geometry" />
        </mxCell>
        <mxCell id="1ENP_768lPTiWEfWRTLd-8" value="&lt;span style=&quot;font-style: normal&quot;&gt;AttributeName: tempValue&lt;br&gt;AttributeType : State&lt;/span&gt;" style="rounded=0;whiteSpace=wrap;html=1;fontStyle=2;fillColor=#fff2cc;strokeColor=#d6b656;fontSize=11;" parent="1" vertex="1">
          <mxGeometry x="-654" y="180" width="140" height="40" as="geometry" />
        </mxCell>
        <mxCell id="1ENP_768lPTiWEfWRTLd-9" value="Attribute: Water level" style="rounded=0;whiteSpace=wrap;html=1;fontStyle=2;fillColor=#fff2cc;strokeColor=#d6b656;fontSize=11;" parent="1" vertex="1">
          <mxGeometry x="-250" y="140" width="140" height="40" as="geometry" />
        </mxCell>
        <mxCell id="1ENP_768lPTiWEfWRTLd-10" value="&lt;span style=&quot;font-style: normal&quot;&gt;AttributeName: floatValue&lt;br&gt;AttributeType : State&lt;/span&gt;" style="rounded=0;whiteSpace=wrap;html=1;fontStyle=2;fillColor=#fff2cc;strokeColor=#d6b656;fontSize=11;" parent="1" vertex="1">
          <mxGeometry x="-250" y="180" width="140" height="40" as="geometry" />
        </mxCell>
        <mxCell id="1ENP_768lPTiWEfWRTLd-28" style="edgeStyle=orthogonalEdgeStyle;rounded=0;orthogonalLoop=1;jettySize=auto;html=1;exitX=0.5;exitY=0;exitDx=0;exitDy=0;endArrow=diamond;endFill=1;entryX=0.5;entryY=1;entryDx=0;entryDy=0;" parent="1" source="1ENP_768lPTiWEfWRTLd-13" edge="1" target="1ENP_768lPTiWEfWRTLd-4">
          <mxGeometry relative="1" as="geometry">
            <mxPoint x="500" y="100" as="targetPoint" />
          </mxGeometry>
        </mxCell>
        <mxCell id="1ENP_768lPTiWEfWRTLd-13" value="Attribute: Alarm" style="rounded=0;whiteSpace=wrap;html=1;fontStyle=2;fillColor=#fff2cc;strokeColor=#d6b656;fontSize=11;" parent="1" vertex="1">
          <mxGeometry x="430" y="150" width="140" height="40" as="geometry" />
        </mxCell>
        <mxCell id="1ENP_768lPTiWEfWRTLd-36" style="edgeStyle=orthogonalEdgeStyle;rounded=0;orthogonalLoop=1;jettySize=auto;html=1;exitX=0.5;exitY=1;exitDx=0;exitDy=0;entryX=0.5;entryY=0;entryDx=0;entryDy=0;endArrow=openThin;endFill=0;" parent="1" source="1ENP_768lPTiWEfWRTLd-14" target="1ENP_768lPTiWEfWRTLd-22" edge="1">
          <mxGeometry relative="1" as="geometry" />
        </mxCell>
        <mxCell id="1ENP_768lPTiWEfWRTLd-40" style="edgeStyle=orthogonalEdgeStyle;rounded=0;orthogonalLoop=1;jettySize=auto;html=1;exitX=0.5;exitY=1;exitDx=0;exitDy=0;entryX=0.5;entryY=0;entryDx=0;entryDy=0;endArrow=openThin;endFill=0;" parent="1" source="1ENP_768lPTiWEfWRTLd-14" target="1ENP_768lPTiWEfWRTLd-39" edge="1">
          <mxGeometry relative="1" as="geometry" />
        </mxCell>
        <mxCell id="1ENP_768lPTiWEfWRTLd-14" value="&lt;span style=&quot;font-style: normal&quot;&gt;AttributeName: alarm&lt;br&gt;AttributeType : State&lt;/span&gt;" style="rounded=0;whiteSpace=wrap;html=1;fontStyle=2;fillColor=#fff2cc;strokeColor=#d6b656;fontSize=11;" parent="1" vertex="1">
          <mxGeometry x="430" y="180" width="140" height="40" as="geometry" />
        </mxCell>
        <mxCell id="1ENP_768lPTiWEfWRTLd-22" value="State : On" style="rounded=0;whiteSpace=wrap;html=1;fontStyle=2;fillColor=#f5f5f5;strokeColor=#666666;fontColor=#333333;fontSize=11;" parent="1" vertex="1">
          <mxGeometry x="380" y="270" width="80" height="30" as="geometry" />
        </mxCell>
        <mxCell id="1ENP_768lPTiWEfWRTLd-39" value="State : Off" style="rounded=0;whiteSpace=wrap;html=1;fontStyle=2;fillColor=#f5f5f5;strokeColor=#666666;fontColor=#333333;fontSize=11;" parent="1" vertex="1">
          <mxGeometry x="540" y="270" width="80" height="30" as="geometry" />
        </mxCell>
        <mxCell id="EhtHmSMO45aY44amCw6f-3" value="Attribute: Distance Measure" style="rounded=0;whiteSpace=wrap;html=1;fontStyle=2;fillColor=#fff2cc;strokeColor=#d6b656;fontSize=11;" vertex="1" parent="1">
          <mxGeometry x="140" y="140" width="140" height="40" as="geometry" />
        </mxCell>
        <mxCell id="EhtHmSMO45aY44amCw6f-6" value="&lt;span style=&quot;font-style: normal&quot;&gt;AttributeName: distance&lt;br&gt;AttributeType : State&lt;/span&gt;" style="rounded=0;whiteSpace=wrap;html=1;fontStyle=2;fillColor=#fff2cc;strokeColor=#d6b656;fontSize=11;" vertex="1" parent="1">
          <mxGeometry x="140" y="180" width="140" height="40" as="geometry" />
        </mxCell>
        <mxCell id="EhtHmSMO45aY44amCw6f-9" value="" style="endArrow=none;html=1;" edge="1" parent="1">
          <mxGeometry width="50" height="50" relative="1" as="geometry">
            <mxPoint x="-300" y="120" as="sourcePoint" />
            <mxPoint x="220.6666259765625" y="120" as="targetPoint" />
          </mxGeometry>
        </mxCell>
        <mxCell id="EhtHmSMO45aY44amCw6f-10" value="" style="endArrow=none;html=1;" edge="1" parent="1">
          <mxGeometry width="50" height="50" relative="1" as="geometry">
            <mxPoint y="140" as="sourcePoint" />
            <mxPoint y="120" as="targetPoint" />
          </mxGeometry>
        </mxCell>
        <mxCell id="EhtHmSMO45aY44amCw6f-11" value="" style="endArrow=none;html=1;" edge="1" parent="1">
          <mxGeometry width="50" height="50" relative="1" as="geometry">
            <mxPoint x="220" y="140" as="sourcePoint" />
            <mxPoint x="220" y="120" as="targetPoint" />
          </mxGeometry>
        </mxCell>
        <mxCell id="EhtHmSMO45aY44amCw6f-26" value="is in state" style="text;html=1;align=center;verticalAlign=middle;resizable=0;points=[];autosize=1;" vertex="1" parent="1">
          <mxGeometry x="410" y="230" width="70" height="20" as="geometry" />
        </mxCell>
        <mxCell id="EhtHmSMO45aY44amCw6f-27" value="is in state" style="text;html=1;align=center;verticalAlign=middle;resizable=0;points=[];autosize=1;" vertex="1" parent="1">
          <mxGeometry x="515" y="230" width="70" height="20" as="geometry" />
        </mxCell>
        <mxCell id="EhtHmSMO45aY44amCw6f-28" value="" style="endArrow=none;html=1;exitX=0.5;exitY=0;exitDx=0;exitDy=0;" edge="1" parent="1" source="1ENP_768lPTiWEfWRTLd-9">
          <mxGeometry width="50" height="50" relative="1" as="geometry">
            <mxPoint x="-210" y="200" as="sourcePoint" />
            <mxPoint x="-180" y="120" as="targetPoint" />
          </mxGeometry>
        </mxCell>
        <mxCell id="EhtHmSMO45aY44amCw6f-29" value="" style="endArrow=none;html=1;" edge="1" parent="1">
          <mxGeometry width="50" height="50" relative="1" as="geometry">
            <mxPoint x="-400" y="140" as="sourcePoint" />
            <mxPoint x="-400" y="120" as="targetPoint" />
          </mxGeometry>
        </mxCell>
        <mxCell id="EhtHmSMO45aY44amCw6f-30" value="Attribute: Humidity" style="rounded=0;whiteSpace=wrap;html=1;fontStyle=2;fillColor=#fff2cc;strokeColor=#d6b656;fontSize=11;" vertex="1" parent="1">
          <mxGeometry x="-460" y="140" width="140" height="40" as="geometry" />
        </mxCell>
        <mxCell id="EhtHmSMO45aY44amCw6f-31" value="&lt;span style=&quot;font-style: normal&quot;&gt;AttributeName: humidValue&lt;br&gt;AttributeType : State&lt;/span&gt;" style="rounded=0;whiteSpace=wrap;html=1;fontStyle=2;fillColor=#fff2cc;strokeColor=#d6b656;fontSize=11;" vertex="1" parent="1">
          <mxGeometry x="-460" y="180" width="140" height="40" as="geometry" />
        </mxCell>
        <mxCell id="EhtHmSMO45aY44amCw6f-32" value="" style="endArrow=openThin;html=1;exitX=0.5;exitY=1;exitDx=0;exitDy=0;endFill=0;" edge="1" parent="1" source="1ENP_768lPTiWEfWRTLd-8">
          <mxGeometry width="50" height="50" relative="1" as="geometry">
            <mxPoint x="-644" y="210" as="sourcePoint" />
            <mxPoint x="-634" y="270" as="targetPoint" />
          </mxGeometry>
        </mxCell>
        <mxCell id="EhtHmSMO45aY44amCw6f-33" value="" style="endArrow=openThin;html=1;endFill=0;" edge="1" parent="1">
          <mxGeometry width="50" height="50" relative="1" as="geometry">
            <mxPoint x="-584" y="220" as="sourcePoint" />
            <mxPoint x="-544" y="270" as="targetPoint" />
          </mxGeometry>
        </mxCell>
        <mxCell id="EhtHmSMO45aY44amCw6f-35" value="" style="endArrow=openThin;html=1;exitX=0.5;exitY=1;exitDx=0;exitDy=0;endFill=0;" edge="1" parent="1" source="EhtHmSMO45aY44amCw6f-31">
          <mxGeometry width="50" height="50" relative="1" as="geometry">
            <mxPoint x="-400" y="230" as="sourcePoint" />
            <mxPoint x="-440" y="270" as="targetPoint" />
          </mxGeometry>
        </mxCell>
        <mxCell id="EhtHmSMO45aY44amCw6f-36" value="" style="endArrow=openThin;html=1;exitX=0.5;exitY=1;exitDx=0;exitDy=0;endFill=0;" edge="1" parent="1" source="EhtHmSMO45aY44amCw6f-31">
          <mxGeometry width="50" height="50" relative="1" as="geometry">
            <mxPoint x="-330" y="230" as="sourcePoint" />
            <mxPoint x="-340" y="270" as="targetPoint" />
          </mxGeometry>
        </mxCell>
        <mxCell id="EhtHmSMO45aY44amCw6f-37" value="" style="endArrow=openThin;html=1;exitX=0.5;exitY=1;exitDx=0;exitDy=0;endFill=0;" edge="1" parent="1">
          <mxGeometry width="50" height="50" relative="1" as="geometry">
            <mxPoint x="-180" y="220" as="sourcePoint" />
            <mxPoint x="-230" y="270" as="targetPoint" />
          </mxGeometry>
        </mxCell>
        <mxCell id="EhtHmSMO45aY44amCw6f-38" value="" style="endArrow=openThin;html=1;endFill=0;" edge="1" parent="1">
          <mxGeometry width="50" height="50" relative="1" as="geometry">
            <mxPoint x="-180" y="220" as="sourcePoint" />
            <mxPoint x="-140" y="270" as="targetPoint" />
          </mxGeometry>
        </mxCell>
        <mxCell id="EhtHmSMO45aY44amCw6f-39" value="" style="endArrow=openThin;html=1;exitX=0.5;exitY=1;exitDx=0;exitDy=0;endFill=0;" edge="1" parent="1">
          <mxGeometry width="50" height="50" relative="1" as="geometry">
            <mxPoint x="10" y="220" as="sourcePoint" />
            <mxPoint x="-40" y="270" as="targetPoint" />
          </mxGeometry>
        </mxCell>
        <mxCell id="EhtHmSMO45aY44amCw6f-40" value="" style="endArrow=openThin;html=1;endFill=0;" edge="1" parent="1">
          <mxGeometry width="50" height="50" relative="1" as="geometry">
            <mxPoint x="10" y="220" as="sourcePoint" />
            <mxPoint x="50" y="270" as="targetPoint" />
          </mxGeometry>
        </mxCell>
        <mxCell id="EhtHmSMO45aY44amCw6f-41" value="" style="endArrow=openThin;html=1;exitX=0.5;exitY=1;exitDx=0;exitDy=0;endFill=0;" edge="1" parent="1">
          <mxGeometry width="50" height="50" relative="1" as="geometry">
            <mxPoint x="220" y="220" as="sourcePoint" />
            <mxPoint x="170" y="270" as="targetPoint" />
          </mxGeometry>
        </mxCell>
        <mxCell id="EhtHmSMO45aY44amCw6f-42" value="" style="endArrow=openThin;html=1;endFill=0;" edge="1" parent="1">
          <mxGeometry width="50" height="50" relative="1" as="geometry">
            <mxPoint x="220" y="220" as="sourcePoint" />
            <mxPoint x="260" y="270" as="targetPoint" />
          </mxGeometry>
        </mxCell>
        <mxCell id="EhtHmSMO45aY44amCw6f-43" value="above&lt;br&gt;threshold" style="text;html=1;align=center;verticalAlign=middle;resizable=0;points=[];autosize=1;" vertex="1" parent="1">
          <mxGeometry x="-675" y="225" width="60" height="30" as="geometry" />
        </mxCell>
        <mxCell id="EhtHmSMO45aY44amCw6f-44" value="above &lt;br&gt;threshold" style="text;html=1;align=center;verticalAlign=middle;resizable=0;points=[];autosize=1;" vertex="1" parent="1">
          <mxGeometry x="-480" y="225" width="60" height="30" as="geometry" />
        </mxCell>
        <mxCell id="EhtHmSMO45aY44amCw6f-45" value="above &lt;br&gt;threshold" style="text;html=1;align=center;verticalAlign=middle;resizable=0;points=[];autosize=1;" vertex="1" parent="1">
          <mxGeometry x="-270" y="225" width="60" height="30" as="geometry" />
        </mxCell>
        <mxCell id="EhtHmSMO45aY44amCw6f-46" value="above &lt;br&gt;threshold" style="text;html=1;align=center;verticalAlign=middle;resizable=0;points=[];autosize=1;" vertex="1" parent="1">
          <mxGeometry x="-72.5" y="225" width="60" height="30" as="geometry" />
        </mxCell>
        <mxCell id="EhtHmSMO45aY44amCw6f-47" value="above &lt;br&gt;threshold" style="text;html=1;align=center;verticalAlign=middle;resizable=0;points=[];autosize=1;" vertex="1" parent="1">
          <mxGeometry x="130" y="225" width="60" height="30" as="geometry" />
        </mxCell>
        <mxCell id="EhtHmSMO45aY44amCw6f-48" value="below&amp;nbsp;&lt;br&gt;threshold" style="text;html=1;align=center;verticalAlign=middle;resizable=0;points=[];autosize=1;" vertex="1" parent="1">
          <mxGeometry x="-560" y="225" width="60" height="30" as="geometry" />
        </mxCell>
        <mxCell id="EhtHmSMO45aY44amCw6f-49" value="below&amp;nbsp;&lt;br&gt;threshold" style="text;html=1;align=center;verticalAlign=middle;resizable=0;points=[];autosize=1;" vertex="1" parent="1">
          <mxGeometry x="-360" y="225" width="60" height="30" as="geometry" />
        </mxCell>
        <mxCell id="EhtHmSMO45aY44amCw6f-50" value="below&amp;nbsp;&lt;br&gt;threshold" style="text;html=1;align=center;verticalAlign=middle;resizable=0;points=[];autosize=1;" vertex="1" parent="1">
          <mxGeometry x="-160" y="225" width="60" height="30" as="geometry" />
        </mxCell>
        <mxCell id="EhtHmSMO45aY44amCw6f-51" value="below&amp;nbsp;&lt;br&gt;threshold" style="text;html=1;align=center;verticalAlign=middle;resizable=0;points=[];autosize=1;" vertex="1" parent="1">
          <mxGeometry x="30" y="225" width="60" height="30" as="geometry" />
        </mxCell>
        <mxCell id="EhtHmSMO45aY44amCw6f-52" value="below&amp;nbsp;&lt;br&gt;threshold" style="text;html=1;align=center;verticalAlign=middle;resizable=0;points=[];autosize=1;" vertex="1" parent="1">
          <mxGeometry x="240" y="225" width="60" height="30" as="geometry" />
        </mxCell>
        <mxCell id="EhtHmSMO45aY44amCw6f-54" value="temp : high" style="rounded=0;whiteSpace=wrap;html=1;fillColor=#f5f5f5;strokeColor=#666666;fontColor=#333333;" vertex="1" parent="1">
          <mxGeometry x="-680" y="270" width="85" height="30" as="geometry" />
        </mxCell>
        <mxCell id="EhtHmSMO45aY44amCw6f-56" value="temp : low" style="rounded=0;whiteSpace=wrap;html=1;fillColor=#f5f5f5;strokeColor=#666666;fontColor=#333333;" vertex="1" parent="1">
          <mxGeometry x="-584" y="270" width="85" height="30" as="geometry" />
        </mxCell>
        <mxCell id="EhtHmSMO45aY44amCw6f-57" value="humidity : high" style="rounded=0;whiteSpace=wrap;html=1;fillColor=#f5f5f5;strokeColor=#666666;fontColor=#333333;" vertex="1" parent="1">
          <mxGeometry x="-482.5" y="270" width="85" height="30" as="geometry" />
        </mxCell>
        <mxCell id="EhtHmSMO45aY44amCw6f-58" value="humidity : low" style="rounded=0;whiteSpace=wrap;html=1;fillColor=#f5f5f5;strokeColor=#666666;fontColor=#333333;" vertex="1" parent="1">
          <mxGeometry x="-382.5" y="270" width="85" height="30" as="geometry" />
        </mxCell>
        <mxCell id="EhtHmSMO45aY44amCw6f-59" value="level : high" style="rounded=0;whiteSpace=wrap;html=1;fillColor=#f5f5f5;strokeColor=#666666;fontColor=#333333;" vertex="1" parent="1">
          <mxGeometry x="-282.5" y="270" width="85" height="30" as="geometry" />
        </mxCell>
        <mxCell id="EhtHmSMO45aY44amCw6f-60" value="level : low" style="rounded=0;whiteSpace=wrap;html=1;fillColor=#f5f5f5;strokeColor=#666666;fontColor=#333333;" vertex="1" parent="1">
          <mxGeometry x="-185" y="270" width="85" height="30" as="geometry" />
        </mxCell>
        <mxCell id="EhtHmSMO45aY44amCw6f-61" value="flow : high" style="rounded=0;whiteSpace=wrap;html=1;fillColor=#f5f5f5;strokeColor=#666666;fontColor=#333333;" vertex="1" parent="1">
          <mxGeometry x="-85" y="270" width="85" height="30" as="geometry" />
        </mxCell>
        <mxCell id="EhtHmSMO45aY44amCw6f-62" value="flow : low" style="rounded=0;whiteSpace=wrap;html=1;fillColor=#f5f5f5;strokeColor=#666666;fontColor=#333333;" vertex="1" parent="1">
          <mxGeometry x="17.5" y="270" width="85" height="30" as="geometry" />
        </mxCell>
        <mxCell id="EhtHmSMO45aY44amCw6f-63" value="distance : high" style="rounded=0;whiteSpace=wrap;html=1;fillColor=#f5f5f5;strokeColor=#666666;fontColor=#333333;" vertex="1" parent="1">
          <mxGeometry x="127.5" y="270" width="85" height="30" as="geometry" />
        </mxCell>
        <mxCell id="EhtHmSMO45aY44amCw6f-64" value="distance : low" style="rounded=0;whiteSpace=wrap;html=1;fillColor=#f5f5f5;strokeColor=#666666;fontColor=#333333;" vertex="1" parent="1">
          <mxGeometry x="240" y="270" width="85" height="30" as="geometry" />
        </mxCell>
      </root>
    </mxGraphModel>
  </diagram>
</mxfile>
